<svg width="170" height="49" viewBox="0 0 170 49" fill="none" xmlns="http://www.w3.org/2000/svg">
<path d="M34.864 30.112C34.1173 30.112 33.4453 29.984 32.848 29.728C32.2507 29.4613 31.7813 29.088 31.44 28.608C31.0987 28.128 30.928 27.568 30.928 26.928H32.88C32.9227 27.408 33.1093 27.8027 33.44 28.112C33.7813 28.4213 34.256 28.576 34.864 28.576C35.4933 28.576 35.984 28.4267 36.336 28.128C36.688 27.8187 36.864 27.424 36.864 26.944C36.864 26.5707 36.752 26.2667 36.528 26.032C36.3147 25.7973 36.0427 25.616 35.712 25.488C35.392 25.36 34.944 25.2213 34.368 25.072C33.6427 24.88 33.0507 24.688 32.592 24.496C32.144 24.2933 31.76 23.984 31.44 23.568C31.12 23.152 30.96 22.5973 30.96 21.904C30.96 21.264 31.12 20.704 31.44 20.224C31.76 19.744 32.208 19.376 32.784 19.12C33.36 18.864 34.0267 18.736 34.784 18.736C35.8613 18.736 36.7413 19.008 37.424 19.552C38.1173 20.0853 38.5013 20.8213 38.576 21.76H36.56C36.528 21.3547 36.336 21.008 35.984 20.72C35.632 20.432 35.168 20.288 34.592 20.288C34.0693 20.288 33.6427 20.4213 33.312 20.688C32.9813 20.9547 32.816 21.3387 32.816 21.84C32.816 22.1813 32.9173 22.464 33.12 22.688C33.3333 22.9013 33.6 23.072 33.92 23.2C34.24 23.328 34.6773 23.4667 35.232 23.616C35.968 23.8187 36.5653 24.0213 37.024 24.224C37.4933 24.4267 37.888 24.7413 38.208 25.168C38.5387 25.584 38.704 26.144 38.704 26.848C38.704 27.4133 38.5493 27.9467 38.24 28.448C37.9413 28.9493 37.4987 29.3547 36.912 29.664C36.336 29.9627 35.6533 30.112 34.864 30.112ZM48.9363 25.376C48.9363 25.7067 48.9149 26.0053 48.8723 26.272H42.1363C42.1896 26.976 42.4509 27.5413 42.9203 27.968C43.3896 28.3947 43.9656 28.608 44.6483 28.608C45.6296 28.608 46.3229 28.1973 46.7283 27.376H48.6962C48.4296 28.1867 47.9443 28.8533 47.2403 29.376C46.5469 29.888 45.6829 30.144 44.6483 30.144C43.8056 30.144 43.0483 29.9573 42.3763 29.584C41.7149 29.2 41.1923 28.6667 40.8083 27.984C40.4349 27.2907 40.2483 26.4907 40.2483 25.584C40.2483 24.6773 40.4296 23.8827 40.7923 23.2C41.1656 22.5067 41.6829 21.9733 42.3443 21.6C43.0163 21.2267 43.7843 21.04 44.6483 21.04C45.4803 21.04 46.2216 21.2213 46.8723 21.584C47.5229 21.9467 48.0296 22.4587 48.3923 23.12C48.7549 23.7707 48.9363 24.5227 48.9363 25.376ZM47.0323 24.8C47.0216 24.128 46.7816 23.5893 46.3123 23.184C45.8429 22.7787 45.2616 22.576 44.5683 22.576C43.9389 22.576 43.4003 22.7787 42.9523 23.184C42.5043 23.5787 42.2376 24.1173 42.1523 24.8H47.0323ZM58.8113 25.376C58.8113 25.7067 58.7899 26.0053 58.7473 26.272H52.0113C52.0646 26.976 52.3259 27.5413 52.7953 27.968C53.2646 28.3947 53.8406 28.608 54.5233 28.608C55.5046 28.608 56.1979 28.1973 56.6033 27.376H58.5712C58.3046 28.1867 57.8193 28.8533 57.1153 29.376C56.4219 29.888 55.5579 30.144 54.5233 30.144C53.6806 30.144 52.9233 29.9573 52.2513 29.584C51.5899 29.2 51.0673 28.6667 50.6833 27.984C50.3099 27.2907 50.1233 26.4907 50.1233 25.584C50.1233 24.6773 50.3046 23.8827 50.6673 23.2C51.0406 22.5067 51.5579 21.9733 52.2193 21.6C52.8913 21.2267 53.6593 21.04 54.5233 21.04C55.3553 21.04 56.0966 21.2213 56.7473 21.584C57.3979 21.9467 57.9046 22.4587 58.2673 23.12C58.6299 23.7707 58.8113 24.5227 58.8113 25.376ZM56.9073 24.8C56.8966 24.128 56.6566 23.5893 56.1873 23.184C55.7179 22.7787 55.1366 22.576 54.4433 22.576C53.8139 22.576 53.2753 22.7787 52.8273 23.184C52.3793 23.5787 52.1126 24.1173 52.0273 24.8H56.9073ZM76.4745 18.88V30H74.6505V22.384L71.2585 30H69.9945L66.5865 22.384V30H64.7625V18.88H66.7305L70.6345 27.6L74.5225 18.88H76.4745ZM82.6959 30.144C81.8639 30.144 81.1119 29.9573 80.4399 29.584C79.7679 29.2 79.2399 28.6667 78.8559 27.984C78.4719 27.2907 78.2799 26.4907 78.2799 25.584C78.2799 24.688 78.4772 23.8933 78.8719 23.2C79.2665 22.5067 79.8052 21.9733 80.4879 21.6C81.1705 21.2267 81.9332 21.04 82.7759 21.04C83.6185 21.04 84.3812 21.2267 85.0639 21.6C85.7465 21.9733 86.2852 22.5067 86.6799 23.2C87.0745 23.8933 87.2719 24.688 87.2719 25.584C87.2719 26.48 87.0692 27.2747 86.6639 27.968C86.2585 28.6613 85.7039 29.2 84.9999 29.584C84.3065 29.9573 83.5385 30.144 82.6959 30.144ZM82.6959 28.56C83.1652 28.56 83.6025 28.448 84.0079 28.224C84.4239 28 84.7599 27.664 85.0159 27.216C85.2719 26.768 85.3999 26.224 85.3999 25.584C85.3999 24.944 85.2772 24.4053 85.0319 23.968C84.7865 23.52 84.4612 23.184 84.0559 22.96C83.6505 22.736 83.2132 22.624 82.7439 22.624C82.2745 22.624 81.8372 22.736 81.4319 22.96C81.0372 23.184 80.7225 23.52 80.4879 23.968C80.2532 24.4053 80.1359 24.944 80.1359 25.584C80.1359 26.5333 80.3759 27.2693 80.8559 27.792C81.3465 28.304 81.9599 28.56 82.6959 28.56ZM90.899 22.464C91.1657 22.016 91.5177 21.6693 91.955 21.424C92.403 21.168 92.931 21.04 93.539 21.04V22.928H93.075C92.3603 22.928 91.8163 23.1093 91.443 23.472C91.0803 23.8347 90.899 24.464 90.899 25.36V30H89.075V21.184H90.899V22.464ZM103.296 25.376C103.296 25.7067 103.274 26.0053 103.232 26.272H96.4956C96.549 26.976 96.8103 27.5413 97.2796 27.968C97.749 28.3947 98.325 28.608 99.0076 28.608C99.989 28.608 100.682 28.1973 101.088 27.376H103.056C102.789 28.1867 102.304 28.8533 101.6 29.376C100.906 29.888 100.042 30.144 99.0076 30.144C98.165 30.144 97.4076 29.9573 96.7356 29.584C96.0743 29.2 95.5516 28.6667 95.1676 27.984C94.7943 27.2907 94.6076 26.4907 94.6076 25.584C94.6076 24.6773 94.789 23.8827 95.1516 23.2C95.525 22.5067 96.0423 21.9733 96.7036 21.6C97.3756 21.2267 98.1436 21.04 99.0076 21.04C99.8396 21.04 100.581 21.2213 101.232 21.584C101.882 21.9467 102.389 22.4587 102.752 23.12C103.114 23.7707 103.296 24.5227 103.296 25.376ZM101.392 24.8C101.381 24.128 101.141 23.5893 100.672 23.184C100.202 22.7787 99.621 22.576 98.9276 22.576C98.2983 22.576 97.7596 22.7787 97.3116 23.184C96.8636 23.5787 96.597 24.1173 96.5116 24.8H101.392Z" fill="#F59B00"/>
<path d="M140.707 25.2071C141.098 24.8166 141.098 24.1834 140.707 23.7929L134.343 17.4289C133.953 17.0384 133.319 17.0384 132.929 17.4289C132.538 17.8195 132.538 18.4526 132.929 18.8431L138.586 24.5L132.929 30.1569C132.538 30.5474 132.538 31.1805 132.929 31.5711C133.319 31.9616 133.953 31.9616 134.343 31.5711L140.707 25.2071ZM114 25.5H140V23.5H114V25.5Z" fill="#F59B00"/>
<rect x="0.5" y="0.5" width="169" height="48" rx="4.5" stroke="#F59B00" stroke-opacity="0.2"/>
</svg>
